<svg width="200" height="40" viewBox="0 0 200 40" fill="none" xmlns="http://www.w3.org/2000/svg">
  <style>
    .text-light { fill: #1e293b; }
    .text-dark { fill: #f8fafc; }
    .accent-light { fill: #4f46e5; }
    .accent-dark { fill: #818cf8; }
    @media (prefers-color-scheme: dark) {
      .text-light { display: none; }
    }
    @media (prefers-color-scheme: light) {
      .text-dark { display: none; }
    }
     @media (prefers-color-scheme: dark) {
      .accent-light { display: none; }
    }
    @media (prefers-color-scheme: light) {
      .accent-dark { display: none; }
    }
  </style>
  <g clip-path="url(#clip0_101_2)">
    <path class="accent-light" d="M15.656 24.344a8 8 0 0 1-11.312-11.312l3.535-3.536a2 2 0 0 1 2.828 0l2.122 2.121a2 2 0 0 1 0 2.828L9.293 18.03a1 1 0 0 0 1.414 1.414l3.536-3.535a2 2 0 0 1 2.828 0l2.121 2.121a2 2 0 0 1 0 2.828l-3.535 3.536Z" />
    <path class="accent-light" d="M24.344 15.656a8 8 0 0 1-11.312 11.312l-3.535-3.535a2 2 0 0 1 0-2.828l2.121-2.122a2 2 0 0 1 2.828 0l3.536 3.536a1 1 0 0 0 1.414-1.414l-3.535-3.536a2 2 0 0 1 0-2.828l2.121-2.121a2 2 0 0 1 2.828 0l3.536 3.535Z" />
     <path class="accent-dark" d="M15.656 24.344a8 8 0 0 1-11.312-11.312l3.535-3.536a2 2 0 0 1 2.828 0l2.122 2.121a2 2 0 0 1 0 2.828L9.293 18.03a1 1 0 0 0 1.414 1.414l3.536-3.535a2 2 0 0 1 2.828 0l2.121 2.121a2 2 0 0 1 0 2.828l-3.535 3.536Z" />
    <path class="accent-dark" d="M24.344 15.656a8 8 0 0 1-11.312 11.312l-3.535-3.535a2 2 0 0 1 0-2.828l2.121-2.122a2 2 0 0 1 2.828 0l3.536 3.536a1 1 0 0 0 1.414-1.414l-3.535-3.536a2 2 0 0 1 0-2.828l2.121-2.121a2 2 0 0 1 2.828 0l3.536 3.535Z" />
  </g>
  <text x="45" y="28" font-family="Arial, sans-serif" font-size="24" font-weight="bold" class="text-light">laghuUrl</text>
  <text x="45" y="28" font-family="Arial, sans-serif" font-size="24" font-weight="bold" class="text-dark">laghuUrl</text>
  <defs>
    <clipPath id="clip0_101_2">
      <path fill="#fff" d="M0 0h40v40H0z" />
    </clipPath>
  </defs>
</svg>